<?xml version="1.0" encoding="UTF-8"?> <svg xmlns="http://www.w3.org/2000/svg" id="Layer_1" data-name="Layer 1" viewBox="0 0 3000 557"><defs><style> .cls-1 { fill: #0d1422; } </style></defs><g><polygon class="cls-1" points="5 386.59 5 14.34 103.54 14.34 103.54 294.62 221.79 294.62 186.25 386.59 5 386.59 5 386.59"></polygon><path class="cls-1" d="M456.18,13.55h-105.77l-143.51,373h102.47l25.71-65.01h133.91l24.06,65.01h103.54L456.18,13.55ZM361.86,247.79l40.75-118.87,40.17,118.87h-80.93Z"></path><path class="cls-1" d="M703.18,273.61c19.32,16.27,41.24,24.41,65.74,24.41,30.77,0,58.32-12.8,82.65-38.37v112.7c-22.54,7.51-39.09,12.39-49.64,14.63-10.55,2.24-22.45,3.35-35.69,3.35-33.63,0-65.92-8.5-96.87-25.49-32.92-18.06-57.78-42.13-74.6-72.18-15.56-27.37-23.34-58.13-23.34-92.3,0-38.28,9.48-72.63,28.44-103.04,17.9-28.98,42.67-51.7,74.33-68.16,28.98-15.2,59.4-22.81,91.23-22.81,26.12,0,54.83,6.17,86.14,18.52v114.04c-21.83-26.84-49.28-40.25-82.38-40.25-28.98,0-53.13,10.2-72.45,30.59-17.18,17.89-25.76,41.33-25.76,70.31,0,31.3,10.73,55.99,32.2,74.06h0Z"></path><path class="cls-1" d="M1144.37,271.47c-20.18,20-44.48,30.01-72.87,30.01s-52.78-10-72.61-30.01c-13.16-13.28-21.95-28.4-26.53-45.3h-101.38c5.53,41.01,22.42,76.48,50.75,106.39,38.39,40.72,87.7,61.08,147.89,61.08,37.15,0,70.18-7.33,99.12-21.97,33.39-16.96,59.56-41.69,78.5-74.21,13.03-22.25,21.23-46.03,24.65-71.29h-101.1c-4.5,16.88-13.25,32-26.42,45.3ZM998.9,126c19.82-20,43.94-30,72.33-30,28.58.36,52.96,10.35,73.14,30,13.37,13.14,22.17,28.38,26.6,45.59h101.11c-5.16-40.54-22.16-76.01-51.09-106.42-38.76-40.89-88.68-61.35-149.77-61.35-79.49,1.26-138.06,33.32-175.75,96.19-13.5,22.51-21.81,46.37-25,71.58h101.55c4.47-16.75,13.35-31.97,26.86-45.59Z"></path><path class="cls-1" d="M1145.87,198.78c0,41.35-33.52,74.88-74.88,74.88s-74.88-33.53-74.88-74.88,33.53-74.88,74.88-74.88,74.88,33.53,74.88,74.88Z"></path><polygon class="cls-1" points="2995 301.05 1327.26 301.05 1327.26 194.44 1327.26 194.44 1327.26 194.44 1145.45 194.44 1145.45 204.59 1317.11 204.59 1317.11 311.23 2995 311.21 2995 301.05"></polygon><g><path class="cls-1" d="M1357.11,135.99v-15.01h86.53v15.01h-35.21v138.32h-16.1v-138.32h-35.22Z"></path><path class="cls-1" d="M1462.84,120.98h90.51v15.01h-74.73v48.05h74.08v15.01h-74.08v60.25h74.08v15.01h-89.86V120.98Z"></path><path class="cls-1" d="M1725.2,149.44l-12.45,9.28c-6.87-8.69-15.12-15.27-24.75-19.75-9.63-4.48-20.2-6.72-31.73-6.72-12.6,0-24.26,2.94-35,8.81-10.74,5.87-19.06,13.76-24.96,23.66-5.9,9.9-8.86,21.04-8.86,33.41,0,18.69,6.6,34.29,19.81,46.8,13.21,12.51,29.86,18.76,49.98,18.76,22.12,0,40.62-8.41,55.51-25.23l12.45,9.17c-7.88,9.73-17.7,17.25-29.47,22.57-11.78,5.32-24.93,7.98-39.46,7.98-27.63,0-49.42-8.93-65.38-26.79-13.39-15.08-20.08-33.29-20.08-54.62,0-22.45,8.11-41.33,24.32-56.65,16.21-15.32,36.52-22.98,60.93-22.98,14.74,0,28.06,2.83,39.94,8.5,11.88,5.66,21.61,13.6,29.2,23.82Z"></path><path class="cls-1" d="M1750.24,120.98h15.78v64.31h80.42v-64.31h15.78v153.33h-15.78v-74.01h-80.42v74.01h-15.78V120.98Z"></path><path class="cls-1" d="M1898.63,274.31V120.98h3.44l105.11,117.54v-117.54h15.57v153.33h-3.54l-104.25-116.11v116.11h-16.32Z"></path><path class="cls-1" d="M2132.82,117.13c23.92,0,43.94,7.75,60.05,23.24,16.11,15.5,24.17,34.57,24.17,57.23s-8.04,41.49-24.12,57.12c-16.08,15.64-35.68,23.45-58.82,23.45s-43.19-7.78-59.3-23.35c-16.11-15.57-24.17-34.4-24.17-56.5,0-14.73,3.67-28.39,11.01-40.97,7.34-12.58,17.35-22.43,30.03-29.55,12.68-7.12,26.39-10.68,41.15-10.68ZM2133.52,132.03c-11.69,0-22.76,2.96-33.23,8.87-10.47,5.91-18.64,13.87-24.52,23.89-5.88,10.01-8.82,21.18-8.82,33.49,0,18.22,6.51,33.61,19.52,46.16,13.01,12.55,28.69,18.83,47.05,18.83,12.26,0,23.6-2.89,34.03-8.66,10.43-5.77,18.57-13.66,24.41-23.68,5.84-10.01,8.77-21.14,8.77-33.38s-2.92-23.18-8.77-33.02c-5.84-9.84-14.07-17.72-24.68-23.63-10.61-5.91-21.86-8.87-33.77-8.87Z"></path><path class="cls-1" d="M2245.49,120.98h15.78v138.53h60.77v14.8h-76.55V120.98Z"></path><path class="cls-1" d="M2406.85,117.13c23.92,0,43.94,7.75,60.05,23.24,16.11,15.5,24.17,34.57,24.17,57.23s-8.04,41.49-24.12,57.12-35.68,23.45-58.82,23.45-43.19-7.78-59.3-23.35c-16.11-15.57-24.17-34.4-24.17-56.5,0-14.73,3.67-28.39,11.01-40.97,7.34-12.58,17.35-22.43,30.03-29.55,12.68-7.12,26.39-10.68,41.15-10.68ZM2407.55,132.03c-11.69,0-22.76,2.96-33.23,8.87-10.47,5.91-18.64,13.87-24.52,23.89-5.88,10.01-8.82,21.18-8.82,33.49,0,18.22,6.51,33.61,19.52,46.16,13.01,12.55,28.69,18.83,47.05,18.83,12.26,0,23.6-2.89,34.03-8.66,10.43-5.77,18.57-13.66,24.41-23.68,5.84-10.01,8.77-21.14,8.77-33.38s-2.92-23.18-8.77-33.02c-5.84-9.84-14.07-17.72-24.68-23.63-10.61-5.91-21.86-8.87-33.77-8.87Z"></path><path class="cls-1" d="M2670.15,146.73l-12.24,11.26c-8.8-8.41-18.45-14.78-28.93-19.13-10.49-4.34-20.7-6.51-30.65-6.51-12.38,0-24.17,2.95-35.38,8.86-11.2,5.91-19.88,13.92-26.04,24.03-6.16,10.11-9.23,20.79-9.23,32.05s3.18,22.5,9.56,32.89c6.37,10.39,15.17,18.55,26.41,24.5,11.24,5.94,23.55,8.91,36.93,8.91,16.25,0,29.99-4.45,41.23-13.34,11.24-8.89,17.89-20.43,19.97-34.61h-50.35v-14.8h68.07c-.14,23.7-7.39,42.51-21.74,56.44-14.35,13.93-33.55,20.9-57.6,20.9-29.2,0-52.32-9.66-69.36-28.98-13.1-14.87-19.65-32.07-19.65-51.6,0-14.52,3.76-28.04,11.27-40.55s17.82-22.29,30.92-29.34c13.1-7.05,27.91-10.58,44.45-10.58,13.38,0,25.98,2.34,37.79,7.04s23.33,12.21,34.57,22.57Z"></path><path class="cls-1" d="M2704.99,120.98h15.78v153.33h-15.78V120.98Z"></path><path class="cls-1" d="M2756.07,120.98h90.51v15.01h-74.73v48.05h74.08v15.01h-74.08v60.25h74.08v15.01h-89.86V120.98Z"></path><path class="cls-1" d="M2856.69,245.75l13.42-7.82c9.45,16.89,20.36,25.33,32.75,25.33,5.3,0,10.27-1.2,14.92-3.6,4.65-2.4,8.2-5.61,10.63-9.64,2.43-4.03,3.65-8.3,3.65-12.82,0-5.14-1.79-10.18-5.37-15.11-4.94-6.81-13.96-15.01-27.06-24.6-13.17-9.66-21.37-16.64-24.59-20.95-5.58-7.23-8.37-15.04-8.37-23.45,0-6.67,1.65-12.75,4.94-18.24,3.29-5.49,7.93-9.81,13.9-12.98,5.98-3.16,12.47-4.74,19.49-4.74,7.44,0,14.4,1.79,20.88,5.37,6.48,3.58,13.33,10.16,20.56,19.75l-12.88,9.49c-5.94-7.64-11-12.68-15.19-15.11-4.19-2.43-8.75-3.65-13.69-3.65-6.37,0-11.58,1.88-15.62,5.63-4.05,3.75-6.07,8.37-6.07,13.86,0,3.34.71,6.57,2.15,9.69,1.43,3.13,4.04,6.53,7.84,10.22,2.08,1.95,8.87,7.05,20.4,15.32,13.67,9.8,23.05,18.52,28.13,26.16,5.08,7.64,7.62,15.32,7.62,23.04,0,11.12-4.35,20.78-13.04,28.98-8.7,8.2-19.27,12.3-31.73,12.3-9.59,0-18.29-2.49-26.09-7.45-7.8-4.97-15-13.29-21.58-24.96Z"></path></g></g><g><path class="cls-1" d="M5,441.27h11.96c1.34,0,2.42.34,3.24,1,.82.67,1.44,1.52,1.85,2.55l31.26,78.03c.72,1.75,1.38,3.65,1.97,5.71.59,2.06,1.17,4.19,1.74,6.41.46-2.21.96-4.35,1.5-6.41.54-2.06,1.17-3.96,1.89-5.71l31.1-78.03c.36-.87.98-1.68,1.85-2.43.87-.75,1.95-1.12,3.24-1.12h12.04l-45.07,110.59h-13.51L5,441.27Z"></path><path class="cls-1" d="M203.27,551.86h-11.58c-1.34,0-2.42-.33-3.24-1-.82-.67-1.44-1.52-1.85-2.55l-10.34-26.7h-49.62l-10.34,26.7c-.36.93-.98,1.75-1.85,2.47-.88.72-1.96,1.08-3.24,1.08h-11.58l44.22-110.59h15.2l44.22,110.59ZM130.8,510.81h41.29l-17.36-44.99c-1.13-2.78-2.24-6.25-3.32-10.42-.57,2.11-1.12,4.05-1.66,5.83s-1.07,3.33-1.58,4.67l-17.36,44.92Z"></path><path class="cls-1" d="M291.94,529.02c.82,0,1.57.34,2.24,1l5.87,6.41c-4.53,5.25-10.02,9.34-16.48,12.27-6.46,2.93-14.24,4.4-23.35,4.4-7.98,0-15.2-1.38-21.69-4.13-6.48-2.75-12.01-6.61-16.59-11.58-4.58-4.96-8.13-10.92-10.65-17.87-2.52-6.95-3.78-14.59-3.78-22.92s1.35-15.98,4.05-22.92,6.5-12.91,11.38-17.9c4.89-4.99,10.74-8.86,17.56-11.62,6.82-2.75,14.34-4.13,22.57-4.13s15.14,1.26,21.03,3.78c5.89,2.52,11.13,5.94,15.71,10.26l-4.86,6.87c-.36.51-.77.94-1.23,1.27-.46.34-1.13.5-2.01.5-.67,0-1.38-.24-2.12-.73-.75-.49-1.63-1.09-2.66-1.81-1.03-.72-2.24-1.49-3.63-2.32-1.39-.82-3.04-1.59-4.94-2.32-1.9-.72-4.12-1.32-6.64-1.81-2.52-.49-5.43-.73-8.72-.73-5.92,0-11.33,1.02-16.25,3.05-4.91,2.03-9.15,4.93-12.7,8.68-3.55,3.76-6.32,8.34-8.3,13.74-1.98,5.4-2.97,11.45-2.97,18.14s.99,13.04,2.97,18.45c1.98,5.4,4.68,9.97,8.1,13.7,3.42,3.73,7.47,6.57,12.16,8.53,4.68,1.96,9.72,2.93,15.13,2.93,3.29,0,6.25-.19,8.88-.58,2.62-.39,5.05-.99,7.29-1.81,2.24-.82,4.32-1.86,6.25-3.13,1.93-1.26,3.87-2.77,5.83-4.51.87-.77,1.72-1.16,2.55-1.16Z"></path><path class="cls-1" d="M362.71,539.98c4.58,0,8.67-.77,12.27-2.32,3.6-1.54,6.65-3.7,9.15-6.48,2.49-2.78,4.4-6.1,5.71-9.96,1.31-3.86,1.97-8.1,1.97-12.73v-67.22h14.9v67.22c0,6.38-1.02,12.3-3.05,17.75-2.03,5.45-4.94,10.18-8.72,14.16-3.78,3.99-8.4,7.11-13.85,9.38-5.45,2.26-11.58,3.4-18.37,3.4s-12.92-1.13-18.37-3.4c-5.45-2.26-10.09-5.39-13.89-9.38-3.81-3.99-6.73-8.71-8.76-14.16-2.03-5.45-3.05-11.37-3.05-17.75v-67.22h14.9v67.14c0,4.63.66,8.88,1.97,12.73,1.31,3.86,3.22,7.18,5.71,9.96,2.5,2.78,5.56,4.95,9.18,6.52,3.63,1.57,7.73,2.35,12.31,2.35Z"></path><path class="cls-1" d="M475.39,539.98c4.58,0,8.67-.77,12.27-2.32,3.6-1.54,6.65-3.7,9.15-6.48,2.49-2.78,4.4-6.1,5.71-9.96,1.31-3.86,1.97-8.1,1.97-12.73v-67.22h14.9v67.22c0,6.38-1.02,12.3-3.05,17.75-2.03,5.45-4.94,10.18-8.72,14.16-3.78,3.99-8.4,7.11-13.85,9.38-5.45,2.26-11.58,3.4-18.37,3.4s-12.92-1.13-18.37-3.4c-5.45-2.26-10.09-5.39-13.89-9.38-3.81-3.99-6.73-8.71-8.76-14.16-2.03-5.45-3.05-11.37-3.05-17.75v-67.22h14.9v67.14c0,4.63.66,8.88,1.97,12.73,1.31,3.86,3.22,7.18,5.71,9.96,2.5,2.78,5.56,4.95,9.18,6.52,3.63,1.57,7.73,2.35,12.31,2.35Z"></path><path class="cls-1" d="M601.38,515.78c.54,1.36,1.07,2.74,1.58,4.13.51-1.44,1.05-2.82,1.62-4.13.57-1.31,1.21-2.64,1.93-3.97l37.43-67.99c.67-1.18,1.36-1.9,2.08-2.16.72-.26,1.75-.39,3.09-.39h11.04v110.59h-13.12v-81.27c0-1.08.03-2.24.08-3.47.05-1.23.13-2.49.23-3.78l-37.89,69.15c-1.29,2.32-3.09,3.47-5.4,3.47h-2.16c-2.32,0-4.12-1.16-5.4-3.47l-38.74-69.38c.15,1.34.27,2.65.35,3.94.08,1.29.12,2.47.12,3.55v81.27h-13.12v-110.59h11.04c1.34,0,2.37.13,3.09.39.72.26,1.41.98,2.08,2.16l38.2,68.07c.72,1.23,1.35,2.53,1.89,3.9Z"></path><path class="cls-1" d="M807.87,551.86h-11.58c-1.34,0-2.42-.33-3.24-1-.82-.67-1.44-1.52-1.85-2.55l-10.34-26.7h-49.62l-10.34,26.7c-.36.93-.98,1.75-1.85,2.47-.88.72-1.96,1.08-3.24,1.08h-11.58l44.22-110.59h15.2l44.22,110.59ZM735.4,510.81h41.29l-17.36-44.99c-1.13-2.78-2.24-6.25-3.32-10.42-.57,2.11-1.12,4.05-1.66,5.83s-1.07,3.33-1.58,4.67l-17.36,44.92Z"></path><path class="cls-1" d="M832.52,441.77c.64.34,1.38,1.02,2.2,2.05l64.06,83.35c-.15-1.34-.26-2.64-.31-3.9-.05-1.26-.08-2.48-.08-3.67v-78.33h13.12v110.59h-7.56c-1.18,0-2.17-.2-2.97-.62-.8-.41-1.58-1.11-2.35-2.08l-63.98-83.27c.1,1.29.18,2.55.23,3.78.05,1.23.08,2.37.08,3.4v78.8h-13.12v-110.59h7.72c1.34,0,2.33.17,2.97.5Z"></path><path class="cls-1" d="M1034.38,496.61c0,8.28-1.31,15.82-3.94,22.61s-6.33,12.61-11.11,17.44c-4.78,4.84-10.52,8.58-17.21,11.23-6.69,2.65-14.1,3.97-22.23,3.97h-41.37v-110.59h41.37c8.13,0,15.54,1.33,22.23,3.97,6.69,2.65,12.43,6.41,17.21,11.27,4.78,4.86,8.49,10.69,11.11,17.48s3.94,14.33,3.94,22.61ZM1019.02,496.61c0-6.79-.93-12.86-2.78-18.21-1.85-5.35-4.48-9.88-7.87-13.58-3.4-3.7-7.51-6.53-12.35-8.49-4.84-1.95-10.21-2.93-16.13-2.93h-26.32v86.36h26.32c5.92,0,11.29-.98,16.13-2.93,4.84-1.95,8.95-4.77,12.35-8.45,3.4-3.68,6.02-8.19,7.87-13.54,1.85-5.35,2.78-11.42,2.78-18.21Z"></path><path class="cls-1" d="M1099.51,539.28h47.85v12.58h-62.82v-110.59h14.97v98.01Z"></path><path class="cls-1" d="M1232.03,441.27v12.19h-53.1v36.74h42.99v11.73h-42.99v37.74h53.1v12.19h-68.15v-110.59h68.15Z"></path><path class="cls-1" d="M1344.55,551.86h-11.58c-1.34,0-2.42-.33-3.24-1-.82-.67-1.44-1.52-1.85-2.55l-10.34-26.7h-49.62l-10.34,26.7c-.36.93-.98,1.75-1.85,2.47-.88.72-1.96,1.08-3.24,1.08h-11.58l44.22-110.59h15.2l44.22,110.59ZM1272.08,510.81h41.29l-17.36-44.99c-1.13-2.78-2.24-6.25-3.32-10.42-.57,2.11-1.12,4.05-1.66,5.83s-1.07,3.33-1.58,4.67l-17.36,44.92Z"></path><path class="cls-1" d="M1374.95,489.74h5.63c1.96,0,3.51-.24,4.67-.73,1.16-.49,2.25-1.32,3.28-2.51l36.81-41.68c1.13-1.29,2.23-2.2,3.28-2.74,1.05-.54,2.4-.81,4.05-.81h12.73l-42.14,47.62c-1.08,1.18-2.1,2.19-3.05,3.01-.95.82-1.97,1.49-3.05,2.01,1.44.46,2.7,1.16,3.78,2.08s2.21,2.08,3.4,3.47l43.99,52.4h-12.97c-.98,0-1.8-.08-2.47-.23-.67-.15-1.25-.36-1.74-.62-.49-.26-.94-.59-1.35-1-.41-.41-.82-.85-1.23-1.31l-38.2-43.91c-.57-.62-1.09-1.14-1.58-1.58-.49-.44-1.06-.81-1.7-1.12-.64-.31-1.39-.53-2.24-.66-.85-.13-1.89-.19-3.13-.19h-6.79v50.63h-14.9v-110.59h14.9v48.47Z"></path><path class="cls-1" d="M1568.74,441.27v12.58h-35.73v98.01h-14.97v-98.01h-35.89v-12.58h86.59Z"></path><path class="cls-1" d="M1652.63,441.27v12.19h-53.1v36.74h42.99v11.73h-42.99v37.74h53.1v12.19h-68.15v-110.59h68.15Z"></path><path class="cls-1" d="M1730.81,458.56c-.46.77-.95,1.35-1.47,1.74-.51.39-1.18.58-2.01.58-.88,0-1.89-.44-3.05-1.31-1.16-.87-2.62-1.84-4.4-2.89-1.78-1.05-3.91-2.02-6.41-2.89-2.5-.87-5.52-1.31-9.07-1.31-3.35,0-6.3.45-8.88,1.35-2.57.9-4.72,2.12-6.44,3.67-1.72,1.54-3.02,3.36-3.9,5.44-.88,2.08-1.31,4.34-1.31,6.75,0,3.09.76,5.65,2.28,7.68,1.52,2.03,3.52,3.77,6.02,5.21,2.49,1.44,5.33,2.69,8.49,3.74,3.16,1.06,6.41,2.15,9.72,3.28,3.32,1.13,6.56,2.41,9.72,3.82,3.16,1.42,5.99,3.2,8.49,5.36,2.49,2.16,4.5,4.81,6.02,7.95,1.52,3.14,2.28,7,2.28,11.58,0,4.84-.82,9.38-2.47,13.62-1.65,4.24-4.05,7.94-7.22,11.07-3.16,3.14-7.05,5.61-11.65,7.41-4.61,1.8-9.84,2.7-15.71,2.7-7.15,0-13.67-1.3-19.56-3.9-5.89-2.6-10.92-6.11-15.09-10.53l4.32-7.1c.41-.57.91-1.04,1.51-1.43.59-.39,1.25-.58,1.97-.58,1.08,0,2.32.58,3.7,1.74,1.39,1.16,3.13,2.43,5.21,3.82,2.08,1.39,4.6,2.66,7.56,3.82,2.96,1.16,6.57,1.74,10.84,1.74,3.55,0,6.71-.49,9.49-1.47,2.78-.98,5.13-2.35,7.06-4.13,1.93-1.78,3.41-3.9,4.44-6.37,1.03-2.47,1.54-5.22,1.54-8.26,0-3.34-.76-6.08-2.28-8.22-1.52-2.13-3.51-3.92-5.98-5.36-2.47-1.44-5.29-2.66-8.45-3.67-3.16-1-6.41-2.03-9.72-3.09-3.32-1.05-6.56-2.28-9.72-3.67-3.16-1.39-5.98-3.19-8.45-5.4-2.47-2.21-4.46-4.98-5.98-8.3-1.52-3.32-2.28-7.42-2.28-12.31,0-3.91.76-7.69,2.28-11.35,1.52-3.65,3.72-6.89,6.6-9.72,2.88-2.83,6.44-5.09,10.69-6.79s9.12-2.55,14.62-2.55c6.17,0,11.81.98,16.9,2.93,5.09,1.96,9.54,4.78,13.35,8.49l-3.63,7.1Z"></path><path class="cls-1" d="M1831.3,441.27v12.58h-35.73v98.01h-14.97v-98.01h-35.89v-12.58h86.59Z"></path><path class="cls-1" d="M1864.79,551.86h-14.97v-110.59h14.97v110.59Z"></path><path class="cls-1" d="M1905.12,441.77c.64.34,1.38,1.02,2.2,2.05l64.06,83.35c-.15-1.34-.26-2.64-.31-3.9-.05-1.26-.08-2.48-.08-3.67v-78.33h13.12v110.59h-7.56c-1.18,0-2.17-.2-2.97-.62-.8-.41-1.58-1.11-2.35-2.08l-63.98-83.27c.1,1.29.18,2.55.23,3.78.05,1.23.08,2.37.08,3.4v78.8h-13.12v-110.59h7.72c1.34,0,2.33.17,2.97.5Z"></path><path class="cls-1" d="M2060.43,540.98c2.98,0,5.72-.14,8.22-.42,2.49-.28,4.85-.71,7.06-1.27,2.21-.57,4.3-1.25,6.25-2.05,1.95-.8,3.91-1.71,5.87-2.74v-24.39h-17.13c-.98,0-1.76-.28-2.35-.85-.59-.57-.89-1.26-.89-2.08v-8.49h33.96v42.45c-2.78,2.01-5.67,3.76-8.68,5.25-3.01,1.49-6.23,2.74-9.65,3.74-3.42,1-7.09,1.75-11,2.24-3.91.49-8.16.73-12.73.73-8.03,0-15.38-1.38-22.07-4.13-6.69-2.75-12.45-6.61-17.29-11.58-4.84-4.96-8.61-10.92-11.31-17.87s-4.05-14.59-4.05-22.92,1.32-16.13,3.97-23.08c2.65-6.95,6.43-12.9,11.35-17.87,4.91-4.96,10.86-8.81,17.83-11.54,6.97-2.73,14.78-4.09,23.42-4.09,4.37,0,8.44.32,12.19.96,3.75.64,7.24,1.57,10.46,2.78,3.22,1.21,6.19,2.68,8.91,4.4,2.73,1.72,5.27,3.67,7.64,5.83l-4.24,6.79c-.88,1.39-2.01,2.08-3.4,2.08-.82,0-1.72-.28-2.7-.85-1.29-.72-2.73-1.59-4.32-2.62-1.6-1.03-3.54-2.02-5.83-2.97-2.29-.95-4.99-1.76-8.1-2.43-3.11-.67-6.81-1-11.07-1-6.23,0-11.86,1.02-16.9,3.05-5.04,2.03-9.34,4.94-12.89,8.72-3.55,3.78-6.28,8.36-8.18,13.74-1.9,5.38-2.86,11.41-2.86,18.1s.99,13.24,2.97,18.72c1.98,5.48,4.77,10.12,8.37,13.93,3.6,3.81,7.87,6.71,12.81,8.72s10.39,3.01,16.36,3.01Z"></path><path class="cls-1" d="M2210.85,458.56c-.46.77-.95,1.35-1.47,1.74-.51.39-1.18.58-2.01.58-.88,0-1.89-.44-3.05-1.31-1.16-.87-2.62-1.84-4.4-2.89-1.78-1.05-3.91-2.02-6.41-2.89-2.5-.87-5.52-1.31-9.07-1.31-3.35,0-6.3.45-8.88,1.35-2.57.9-4.72,2.12-6.44,3.67-1.72,1.54-3.02,3.36-3.9,5.44-.88,2.08-1.31,4.34-1.31,6.75,0,3.09.76,5.65,2.28,7.68,1.52,2.03,3.52,3.77,6.02,5.21,2.49,1.44,5.33,2.69,8.49,3.74,3.16,1.06,6.41,2.15,9.72,3.28,3.32,1.13,6.56,2.41,9.72,3.82,3.16,1.42,5.99,3.2,8.49,5.36,2.49,2.16,4.5,4.81,6.02,7.95,1.52,3.14,2.28,7,2.28,11.58,0,4.84-.82,9.38-2.47,13.62-1.65,4.24-4.05,7.94-7.22,11.07-3.16,3.14-7.05,5.61-11.65,7.41-4.61,1.8-9.84,2.7-15.71,2.7-7.15,0-13.67-1.3-19.56-3.9-5.89-2.6-10.92-6.11-15.09-10.53l4.32-7.1c.41-.57.91-1.04,1.51-1.43.59-.39,1.25-.58,1.97-.58,1.08,0,2.32.58,3.7,1.74,1.39,1.16,3.13,2.43,5.21,3.82,2.08,1.39,4.6,2.66,7.56,3.82,2.96,1.16,6.57,1.74,10.84,1.74,3.55,0,6.71-.49,9.49-1.47,2.78-.98,5.13-2.35,7.06-4.13,1.93-1.78,3.41-3.9,4.44-6.37,1.03-2.47,1.54-5.22,1.54-8.26,0-3.34-.76-6.08-2.28-8.22-1.52-2.13-3.51-3.92-5.98-5.36-2.47-1.44-5.29-2.66-8.45-3.67-3.16-1-6.41-2.03-9.72-3.09-3.32-1.05-6.56-2.28-9.72-3.67-3.16-1.39-5.98-3.19-8.45-5.4-2.47-2.21-4.46-4.98-5.98-8.3-1.52-3.32-2.28-7.42-2.28-12.31,0-3.91.76-7.69,2.28-11.35,1.52-3.65,3.72-6.89,6.6-9.72,2.88-2.83,6.44-5.09,10.69-6.79s9.12-2.55,14.62-2.55c6.17,0,11.81.98,16.9,2.93,5.09,1.96,9.54,4.78,13.35,8.49l-3.63,7.1Z"></path><path class="cls-1" d="M2338.73,496.61c0,8.28-1.31,15.89-3.94,22.81-2.62,6.92-6.33,12.88-11.11,17.87-4.78,4.99-10.53,8.86-17.25,11.62-6.71,2.75-14.14,4.13-22.27,4.13s-15.54-1.38-22.23-4.13c-6.69-2.75-12.43-6.62-17.21-11.62-4.78-4.99-8.49-10.95-11.11-17.87-2.62-6.92-3.94-14.52-3.94-22.81s1.31-15.89,3.94-22.81c2.62-6.92,6.33-12.89,11.11-17.9s10.52-8.91,17.21-11.69c6.69-2.78,14.1-4.17,22.23-4.17s15.55,1.39,22.27,4.17c6.71,2.78,12.46,6.68,17.25,11.69s8.49,10.99,11.11,17.9c2.62,6.92,3.94,14.52,3.94,22.81ZM2323.37,496.61c0-6.79-.93-12.89-2.78-18.29-1.85-5.4-4.48-9.97-7.87-13.7-3.4-3.73-7.51-6.6-12.35-8.61-4.84-2.01-10.24-3.01-16.21-3.01s-11.29,1-16.13,3.01c-4.84,2.01-8.97,4.88-12.39,8.61-3.42,3.73-6.06,8.3-7.91,13.7-1.85,5.4-2.78,11.5-2.78,18.29s.93,12.88,2.78,18.25c1.85,5.38,4.49,9.93,7.91,13.66,3.42,3.73,7.55,6.59,12.39,8.57,4.84,1.98,10.21,2.97,16.13,2.97s11.37-.99,16.21-2.97c4.84-1.98,8.95-4.84,12.35-8.57,3.4-3.73,6.02-8.28,7.87-13.66,1.85-5.38,2.78-11.46,2.78-18.25Z"></path><path class="cls-1" d="M2374.15,539.28h47.85v12.58h-62.82v-110.59h14.97v98.01Z"></path><path class="cls-1" d="M2481.5,539.98c4.58,0,8.67-.77,12.27-2.32,3.6-1.54,6.65-3.7,9.15-6.48,2.49-2.78,4.4-6.1,5.71-9.96,1.31-3.86,1.97-8.1,1.97-12.73v-67.22h14.9v67.22c0,6.38-1.02,12.3-3.05,17.75-2.03,5.45-4.94,10.18-8.72,14.16-3.78,3.99-8.4,7.11-13.85,9.38-5.45,2.26-11.58,3.4-18.37,3.4s-12.92-1.13-18.37-3.4c-5.45-2.26-10.09-5.39-13.89-9.38-3.81-3.99-6.73-8.71-8.76-14.16-2.03-5.45-3.05-11.37-3.05-17.75v-67.22h14.9v67.14c0,4.63.66,8.88,1.97,12.73,1.31,3.86,3.22,7.18,5.71,9.96,2.5,2.78,5.56,4.95,9.18,6.52,3.63,1.57,7.73,2.35,12.31,2.35Z"></path><path class="cls-1" d="M2626.52,441.27v12.58h-35.73v98.01h-14.97v-98.01h-35.89v-12.58h86.59Z"></path><path class="cls-1" d="M2660.01,551.86h-14.97v-110.59h14.97v110.59Z"></path><path class="cls-1" d="M2792.37,496.61c0,8.28-1.31,15.89-3.94,22.81-2.62,6.92-6.33,12.88-11.11,17.87-4.78,4.99-10.53,8.86-17.25,11.62-6.71,2.75-14.14,4.13-22.27,4.13s-15.54-1.38-22.23-4.13c-6.69-2.75-12.43-6.62-17.21-11.62-4.78-4.99-8.49-10.95-11.11-17.87-2.62-6.92-3.94-14.52-3.94-22.81s1.31-15.89,3.94-22.81c2.62-6.92,6.33-12.89,11.11-17.9s10.52-8.91,17.21-11.69c6.69-2.78,14.1-4.17,22.23-4.17s15.55,1.39,22.27,4.17c6.71,2.78,12.46,6.68,17.25,11.69s8.49,10.99,11.11,17.9c2.62,6.92,3.94,14.52,3.94,22.81ZM2777.01,496.61c0-6.79-.93-12.89-2.78-18.29-1.85-5.4-4.48-9.97-7.87-13.7-3.4-3.73-7.51-6.6-12.35-8.61-4.84-2.01-10.24-3.01-16.21-3.01s-11.29,1-16.13,3.01c-4.84,2.01-8.97,4.88-12.39,8.61-3.42,3.73-6.06,8.3-7.91,13.7-1.85,5.4-2.78,11.5-2.78,18.29s.93,12.88,2.78,18.25c1.85,5.38,4.49,9.93,7.91,13.66,3.42,3.73,7.55,6.59,12.39,8.57,4.84,1.98,10.21,2.97,16.13,2.97s11.37-.99,16.21-2.97c4.84-1.98,8.95-4.84,12.35-8.57,3.4-3.73,6.02-8.28,7.87-13.66,1.85-5.38,2.78-11.46,2.78-18.25Z"></path><path class="cls-1" d="M2823.51,441.77c.64.34,1.38,1.02,2.2,2.05l64.06,83.35c-.15-1.34-.26-2.64-.31-3.9-.05-1.26-.08-2.48-.08-3.67v-78.33h13.12v110.59h-7.56c-1.18,0-2.17-.2-2.97-.62-.8-.41-1.58-1.11-2.35-2.08l-63.98-83.27c.1,1.29.18,2.55.23,3.78.05,1.23.08,2.37.08,3.4v78.8h-13.12v-110.59h7.72c1.34,0,2.33.17,2.97.5Z"></path><path class="cls-1" d="M2986.16,458.56c-.46.77-.95,1.35-1.47,1.74-.51.39-1.18.58-2.01.58-.88,0-1.89-.44-3.05-1.31-1.16-.87-2.62-1.84-4.4-2.89-1.78-1.05-3.91-2.02-6.41-2.89-2.5-.87-5.52-1.31-9.07-1.31-3.35,0-6.3.45-8.88,1.35-2.57.9-4.72,2.12-6.44,3.67-1.72,1.54-3.02,3.36-3.9,5.44-.88,2.08-1.31,4.34-1.31,6.75,0,3.09.76,5.65,2.28,7.68,1.52,2.03,3.52,3.77,6.02,5.21,2.49,1.44,5.33,2.69,8.49,3.74,3.16,1.06,6.41,2.15,9.72,3.28,3.32,1.13,6.56,2.41,9.72,3.82,3.16,1.42,5.99,3.2,8.49,5.36,2.49,2.16,4.5,4.81,6.02,7.95,1.52,3.14,2.28,7,2.28,11.58,0,4.84-.82,9.38-2.47,13.62-1.65,4.24-4.05,7.94-7.22,11.07-3.16,3.14-7.05,5.61-11.65,7.41-4.61,1.8-9.84,2.7-15.71,2.7-7.15,0-13.67-1.3-19.56-3.9-5.89-2.6-10.92-6.11-15.09-10.53l4.32-7.1c.41-.57.91-1.04,1.51-1.43.59-.39,1.25-.58,1.97-.58,1.08,0,2.32.58,3.7,1.74,1.39,1.16,3.13,2.43,5.21,3.82,2.08,1.39,4.6,2.66,7.56,3.82,2.96,1.16,6.57,1.74,10.84,1.74,3.55,0,6.71-.49,9.49-1.47,2.78-.98,5.13-2.35,7.06-4.13,1.93-1.78,3.41-3.9,4.44-6.37,1.03-2.47,1.54-5.22,1.54-8.26,0-3.34-.76-6.08-2.28-8.22-1.52-2.13-3.51-3.92-5.98-5.36-2.47-1.44-5.29-2.66-8.45-3.67-3.16-1-6.41-2.03-9.72-3.09-3.32-1.05-6.56-2.28-9.72-3.67-3.16-1.39-5.98-3.19-8.45-5.4-2.47-2.21-4.46-4.98-5.98-8.3-1.52-3.32-2.28-7.42-2.28-12.31,0-3.91.76-7.69,2.28-11.35,1.52-3.65,3.72-6.89,6.6-9.72,2.88-2.83,6.44-5.09,10.69-6.79s9.12-2.55,14.62-2.55c6.17,0,11.81.98,16.9,2.93,5.09,1.96,9.54,4.78,13.35,8.49l-3.63,7.1Z"></path></g></svg> 